<?xml version="1.0" standalone="no"?>
<!DOCTYPE svg PUBLIC "-//W3C//DTD SVG 20010904//EN"
 "http://www.w3.org/TR/2001/REC-SVG-20010904/DTD/svg10.dtd">
<svg version="1.0" xmlns="http://www.w3.org/2000/svg"
 width="500.000000pt" height="500.000000pt" viewBox="0 0 500.000000 500.000000"
 preserveAspectRatio="xMidYMid meet">
<metadata>
Created by potrace 1.16, written by Peter Selinger 2001-2019
</metadata>
<g transform="translate(0.000000,500.000000) scale(0.100000,-0.100000)"
fill="#000000" stroke="none">
<path d="M2216 2899 c-102 -111 -183 -205 -180 -210 3 -5 47 -9 98 -9 l93 0
129 142 c71 79 155 170 187 204 31 33 57 64 57 67 0 4 -45 7 -99 7 l-100 0
-185 -201z"/>
<path d="M2578 2996 l-46 -52 76 -83 77 -82 105 3 105 3 -125 130 c-69 72
-129 131 -135 132 -5 1 -31 -22 -57 -51z"/>
<path d="M2600 2526 c-107 -118 -196 -218 -197 -222 -2 -5 39 -10 91 -12 l94
-3 184 198 c101 109 187 203 191 210 16 26 -23 43 -97 43 l-73 0 -193 -214z"/>
<path d="M2102 2621 c2 -5 62 -70 135 -145 l132 -136 45 53 c25 28 45 57 45
62 -1 6 -36 47 -80 93 l-78 82 -101 0 c-56 0 -100 -4 -98 -9z"/>
</g>
</svg>
